# xmcd CD database file
#
# Track frame offsets:
#	150
#	26667
#	51569
#	58353
#	83872
#	91639
#	108164
#	125580
#	133608
#	149328
#	169673
#	191160
#	203126
#	224437
#	245446
#
# Disc length: 3446 seconds
#
# Revision: 0
# Processed by: cddbd v1.5.2PL0 Copyright (c) Steve Scherf et al.
# Submitted via: CDex 1.51
#
DISCID=e10d740f
DTITLE=Lisa Lynne and Aryeh Frankfurter - Weaving Worlds
DYEAR=2011
DGENRE=New Age
TTITLE0=Aurora Borealis
TTITLE1=A Fond Wish
TTITLE2=Interlace I
TTITLE3=Bandora's Box
TTITLE4=Interlace II
TTITLE5=My Lagan Love
TTITLE6=The Lea Rig
TTITLE7=Interlace III
TTITLE8=Eliz Iza
TTITLE9=Roundelay
TTITLE10=Autumn Waltz
TTITLE11=Interlace IV
TTITLE12=Whisper
TTITLE13=A Bountiful Life
TTITLE14=Interlace V
EXTD=YEAR: 2011
EXTT0=
EXTT1=
EXTT2=
EXTT3=
EXTT4=
EXTT5=
EXTT6=
EXTT7=
EXTT8=
EXTT9=
EXTT10=
EXTT11=
EXTT12=
EXTT13=
EXTT14=
PLAYORDER=
